[img]http://leetleech.org/images/27001819902479325139.jpg

The Last Song (2010) DVDRip XviD-SKITTLES
 
http://leetleech.org/images/39185456263711143641.png

Video
ID                               : 0
Format                           : MPEG-4 Visual
Format profile                   : Advanced Simple@L5
Format settings, BVOP            : Yes
Format settings, QPel            : No
Format settings, GMC             : No warppoints
Format settings, Matrix          : Default (H.263)
Muxing mode                      : Packed bitstream
Codec ID                         : XVID
Codec ID/Hint                    : XviD
Duration                         : 1h 47mn
Bit rate                         : 778 Kbps
Width                            : 640 pixels
Height                           : 272 pixels
Display aspect ratio             : 2.35:1
Frame rate                       : 23.976 fps
Color space                      : YUV
Chroma subsampling               : 4:2:0
Bit depth                        : 8 bits
Scan type                        : Progressive
Bits/(Pixel*Frame)               : 0.186
Stream size                      : 599 MiB (85%)
Writing library                  : XviD 1.2.1 (UTC 2008-12-04)

Audio
ID                               : 1
Format                           : MPEG Audio
Format version                   : Version 1
Format profile                   : Layer 3
Mode                             : Joint stereo
Mode extension                   : MS Stereo
Codec ID                         : 55
Codec ID/Hint                    : MP3
Duration                         : 1h 47mn
Bit rate mode                    : Constant
Bit rate                         : 128 Kbps
Channel(s)                       : 2 channels
Sampling rate                    : 48.0 KHz
Video delay                      : 1s 0ms
Stream size                      : 98.5 MiB (14%)
Alignment                        : Split accross interleaves
Interleave, duration             : 42 ms (1.00 video frame)
Interleave, preload duration     : 500 ms
 
http://www.imdb.com/title/tt1294226/
 
http://leetleech.org/images/46941880339015444838.png

Miley Cyrus    ...     Ronnie Miller
Greg Kinnear    ...     Steve Miller
Bobby Coleman    ...     Jonah Miller
Liam Hemsworth    ...     Will Blakelee
Hallock Beals    ...     Scott
Kelly Preston    ...     Kim
Nick Lashaway    ...     Marcus
Carly Chaikin    ...     Blaze
Kate Vernon    ...     Susan Blakelee
Melissa Ordway    ...     Ashley
Nick Searcy    ...     Tom Blakelee
Adam Barnett    ...     Teddy
Michael Jamorski...     Lance
Carrie Malabre    ...     Cassie
Lance E. Nichols...     Pastor Harris
 
http://leetleech.org/images/70187465700988366433.png

Genre:
Drama | Romance

Plot: 
A drama centered on a rebellious girl who is sent to a 
Southern beach town for the summer to stay with her father. 
Through their mutual love of music, the estranged duo learn 
to reconnect. 
 
http://leetleech.org/images/64476088802225496360.png
 
http://leetleech.org/images/40275333905357996269.png 
http://leetleech.org/images/61354282201424388791.png 
http://leetleech.org/images/15991905208356183714.png 
http://leetleech.org/images/07097138163066767597.png 
http://leetleech.org/images/25294205571819857616.png 
http://leetleech.org/images/05156248052672926265.png